<svg width="69" height="56" viewBox="0 0 69 56" fill="none" xmlns="http://www.w3.org/2000/svg">
<g clip-path="url(#clip0_288_407)">
<g clip-path="url(#clip1_288_407)">
<path d="M44.5085 0C43.7022 1.9581 42.3195 3.63516 40.5369 4.81634C38.7545 5.99752 36.6536 6.62903 34.5035 6.62998C32.3535 6.62903 30.2526 5.99752 28.4701 4.81634C26.6877 3.63516 25.3047 1.9581 24.4984 0L0 10.2L6.89034 26.1583L14.465 23.0056V55.5435H54.8112V23.1238L62.1099 26.1652L69 10.2069L44.5085 0Z" fill="#FAFAFA"/>
<path d="M3.1406 16.965C2.89196 17.2578 3.06747 17.6237 3.43312 17.6237C3.594 17.6237 3.76952 17.5213 3.81339 17.4042C3.90115 17.1846 3.65251 16.7455 3.43312 16.7455C3.37461 16.7455 3.24298 16.848 3.1406 16.965Z" fill="#F6B60D"/>
<path d="M7.01642 17.58C6.54841 17.6971 5.93411 18.1948 5.7001 18.6485C5.1882 19.6293 5.56849 20.4782 6.94332 21.5028C8.49365 22.6299 9.97084 22.8934 10.3365 22.0737C10.6583 21.3711 10.0732 19.439 9.18105 18.2534C8.68378 17.6093 7.90861 17.3605 7.01642 17.58Z" fill="#F6B60D"/>
<path d="M35.3174 18.7655C34.4106 19.0436 34.63 20.5513 35.5807 20.5513C36.0049 20.5513 36.4875 20.0536 36.4875 19.6291C36.4875 19.1022 35.8147 18.6045 35.3174 18.7655Z" fill="#F6B60D"/>
<path d="M23.6459 19.3218C23.2364 19.5999 22.8854 20.2732 22.8854 20.7709C22.8854 21.3564 23.6167 22.0151 24.2456 22.0151C24.6405 22.0151 24.8452 21.9126 25.1524 21.5467C26.1469 20.361 24.8598 18.4582 23.6459 19.3218Z" fill="#F6B60D"/>
<path d="M30.0229 20.1708C28.8967 20.4782 27.7412 21.2686 26.6443 22.5274C26.0739 23.1714 25.3426 23.874 25.0208 24.0789C24.0555 24.6937 24.0116 24.7962 24.1286 26.0403C24.2895 27.7968 23.7045 29.3337 22.4905 30.3437C21.3205 31.3098 19.4922 31.3537 17.8834 30.4462C16.8596 29.8753 15.0459 28.1188 14.6072 27.2552C14.1977 26.4795 13.2762 25.2938 12.8082 24.9572C11.9014 24.3131 11.0385 24.723 11.0385 25.8061C11.0385 26.6844 11.5211 27.226 12.9398 27.9432C14.3 28.6312 14.8851 29.1874 15.1337 30.0803C15.3092 30.6658 15.1337 30.9 14.4463 31.0317C14.066 31.1049 13.8613 31.2659 13.5688 31.7343C13.364 32.0563 13.1592 32.3637 13.13 32.4076C13.1007 32.4369 12.6766 32.4515 12.2085 32.4369C11.1993 32.3783 10.8337 32.5393 10.4534 33.1834C9.95615 33.9738 10.1316 35.057 10.7898 35.4814C10.9653 35.5839 11.6089 35.701 12.2085 35.7303C13.4664 35.7888 13.8905 36.0084 14.3 36.8427C14.5633 37.3696 14.5633 37.3989 14.3 37.9259C13.9052 38.7016 13.2323 39.0237 12.0623 38.9651C11.1555 38.9066 11.0531 38.8627 9.89764 37.9991C9.22487 37.5014 8.55206 37.0915 8.40582 37.0915C7.95239 37.0915 7.38198 37.6624 7.38198 38.1308C7.38198 38.8188 7.77689 39.0822 9.15173 39.2871C9.8245 39.3896 10.6728 39.5652 11.0238 39.6824C12.3255 40.1216 13.3055 41.0584 12.8959 41.4679C12.6766 41.6877 11.2871 41.6585 10.3803 41.4241C9.44425 41.1755 9.10784 41.3215 9.16635 41.9659L9.21024 42.4343L10.5558 42.5073C12.1647 42.5953 12.6181 42.8585 12.9106 43.8395C13.0715 44.3954 13.0569 44.571 12.8667 45.0982C12.4133 46.269 11.2578 46.8546 9.72214 46.6936C9.26875 46.6498 8.66908 46.518 8.36193 46.3862C5.94867 45.3764 3.30137 47.7767 3.28674 50.9824C3.28674 52.1536 3.79865 53.5291 4.52995 54.2757C5.31974 55.0957 5.67078 55.2421 6.84082 55.2421C8.05478 55.2271 9.02008 54.8175 11.0823 53.4269C13.0715 52.0948 13.5541 51.9046 13.9929 52.3438C14.2561 52.607 14.2854 52.7533 14.1977 53.6171C13.9344 56.1934 13.1153 57.6716 11.1993 59.0913C9.38574 60.4235 8.55206 61.4628 8.55206 62.3558C8.55206 62.8826 9.07859 63.7756 9.57586 64.0684C10.1463 64.4195 11.0531 64.3903 11.5357 64.0096C12.0623 63.6 12.3109 63.0582 12.5742 61.8286C12.8813 60.3355 13.1153 59.8821 14.0221 58.9745C14.8851 58.0962 15.5725 57.7304 16.3477 57.7304C18.2344 57.7304 18.5416 59.0329 16.9035 60.0577C16.0405 60.5699 15.8065 60.9503 15.9235 61.5946C16.1283 62.6482 17.4446 63.2926 18.5123 62.8534C19.2582 62.5314 19.4337 62.1214 19.3167 60.8481C19.2436 59.9405 19.2728 59.6331 19.5069 59.1209C19.8286 58.3743 20.2674 58.0816 20.6916 58.3156C21.3351 58.6671 21.1596 60.3063 20.1504 63.4682C19.5507 65.3855 19.4776 66.0587 19.8725 66.4979C20.4722 67.1568 21.0572 66.7907 21.4375 65.5173C21.5838 64.9905 21.6569 64.9171 21.9201 64.9905C22.0957 65.0343 22.2565 65.0781 22.3004 65.0781C22.9878 65.0927 23.178 64.6681 23.1926 63.102C23.2072 61.0967 23.5436 60.5553 25.0793 60.1453C26.147 59.8525 26.7906 59.8821 27.5365 60.2187C29.1746 60.9653 29.7889 61.8578 29.6719 63.3218C29.5987 64.1998 29.628 64.3023 30.1984 65.3417C30.5202 65.9419 30.9882 66.8495 31.2222 67.347C31.5293 67.991 31.7926 68.3276 32.1144 68.5032C32.6263 68.7668 32.9188 68.6938 33.8695 68.0348C34.162 67.8446 34.7616 67.6102 35.2151 67.5372C36.4583 67.347 37.6722 66.4541 38.2426 65.3271C38.5059 64.8295 38.7545 63.6584 38.8715 62.297C38.9447 61.5212 39.0178 61.4482 39.8367 61.2872C41.0069 61.0675 41.4895 59.7649 40.9044 58.4182C40.5681 57.6716 40.1146 57.3204 39.1787 57.0714C38.3743 56.8666 38.345 56.6764 39.0763 56.5154C39.7783 56.369 40.7877 56.603 42.1184 57.2178C43.3762 57.7888 44.1367 58.4327 44.488 59.2231C45.2336 60.9211 47.7788 60.2771 47.7788 58.3743C47.7788 58.1108 47.735 57.818 47.6762 57.7304C47.4862 57.4084 46.3747 56.9984 45.7017 56.9984C43.8296 56.9838 41.7821 56.12 40.3197 54.7003C39.6028 54.0125 39.5445 53.8953 39.5883 53.3827C39.6174 52.9439 39.72 52.7829 40.0417 52.6365C40.3926 52.461 40.5243 52.4756 41.2115 52.7975C41.6212 52.9877 42.5718 53.6171 43.2886 54.2027C44.2684 54.9785 44.839 55.3297 45.5408 55.5345C47.3399 56.1054 48.9194 55.798 50.0605 54.6857C51.0695 53.6901 51.3328 53.0753 51.3328 51.6556C51.3328 50.6604 51.2595 50.3676 50.9086 49.6799C50.353 48.5967 49.3874 47.7183 48.3639 47.3375C47.5741 47.0447 47.457 47.0302 46.1847 47.2061C44.9852 47.3671 44.7802 47.3671 44.1809 47.1327C43.0986 46.7082 42.5864 46.284 41.9867 45.2446C40.9631 43.4587 41.1386 42.0097 42.5281 40.5754C43.3762 39.7116 44.0784 39.3311 45.7017 38.848C47.0619 38.4382 47.9834 37.9844 48.5977 37.4136C49.2412 36.8134 49.2557 36.0084 48.6415 35.3497C47.8371 34.5007 46.799 34.7935 44.1809 36.6232C43.3032 37.2379 42.4843 37.4428 42.4843 37.033C42.4843 36.9305 42.6452 36.55 42.8352 36.1986C43.0252 35.8474 43.2007 35.4229 43.2153 35.2619C43.3324 34.0909 43.0252 33.6811 41.8258 33.4322C40.9923 33.2566 40.9923 33.2566 41.0802 32.8028C41.1386 32.5393 41.2115 31.9392 41.2557 31.4562C41.3432 30.4462 41.0802 29.7729 40.4072 29.2752C39.8808 28.8946 38.7984 28.88 38.0525 29.2459C37.2627 29.6411 36.9117 30.1973 36.7654 31.383C36.6045 32.6564 36.2096 33.4615 35.5076 33.9445C34.864 34.369 33.9426 34.4275 33.4307 34.0762C33.0066 33.7689 32.5531 32.7882 32.5385 32.1587C32.5385 31.705 32.9042 30.0803 33.6355 27.3577C34.0889 25.6305 34.279 23.0982 34.0157 22.2785C33.7525 21.4735 32.6409 20.4489 31.7633 20.1854C30.9004 19.9366 30.915 19.9366 30.0229 20.1708ZM27.2293 26.8747C27.6535 27.3577 27.9752 28.2945 28.2092 29.7436C28.3263 30.4462 28.4579 31.1927 28.5164 31.4123C28.6042 31.7489 28.5749 31.8221 28.3409 31.8221C27.9752 31.8221 26.8783 31.1049 26.2933 30.4901C25.7814 29.9339 25.0793 28.3823 25.0793 27.7968C25.0793 27.387 25.3133 26.8308 25.5766 26.6697C25.6644 26.6112 26.0007 26.5527 26.3371 26.5527C26.7613 26.5527 27.01 26.6405 27.2293 26.8747Z" fill="#F6B60D"/>
<path d="M12.384 21.898C12.1354 22.1468 12.1646 22.6006 12.4279 22.6884C12.6912 22.7908 13.086 22.5127 13.086 22.22C13.086 21.9273 12.5888 21.693 12.384 21.898Z" fill="#F6B60D"/>
<path d="M21.423 26.0403C21.1889 26.4648 21.3645 26.7575 21.8032 26.6697C22.008 26.6405 22.0811 26.4941 22.0811 26.1867C22.0811 25.6305 21.6862 25.5427 21.423 26.0403Z" fill="#F6B60D"/>
<path d="M56.0426 27.2406C55.8668 27.4016 55.9255 27.8261 56.1447 28.0018C56.3789 28.2067 56.759 28.075 56.8761 27.7676C57.037 27.3431 56.3643 26.9186 56.0426 27.2406Z" fill="#F6B60D"/>
<path d="M53.6 30.4608C52.2105 31.1927 51.1866 32.8466 51.4645 33.9152C51.6254 34.5885 52.181 34.8227 53.6 34.8227C54.8724 34.8081 55.5012 34.6031 56.3202 33.9152C57.3879 33.0223 57.1541 30.9438 55.9255 30.3291C55.1941 29.9631 54.4773 30.007 53.6 30.4608Z" fill="#F6B60D"/>
<path d="M7.10409 30.5925C6.67996 31.1341 6.72384 31.4853 7.29426 32.0562C7.68913 32.4514 7.90852 32.5539 8.36194 32.5539C9.06397 32.5539 9.28335 32.3489 9.28335 31.7049C9.28335 31.339 9.15174 31.0755 8.78608 30.7096C8.15719 30.0802 7.54289 30.0363 7.10409 30.5925Z" fill="#F6B60D"/>
<path d="M44.9853 33.6371C44.7511 33.9299 44.9415 34.3104 45.3362 34.3104C45.5262 34.3104 45.7167 34.208 45.7604 34.0762C45.8629 33.7981 45.6141 33.4322 45.3362 33.4322C45.2341 33.4322 45.0728 33.52 44.9853 33.6371Z" fill="#F6B60D"/>
<path d="M52.1372 37.2378C51.9763 37.3988 51.8446 37.6623 51.8446 37.8233C51.8446 37.9843 51.9763 38.2478 52.1372 38.4088C52.298 38.5698 52.5614 38.7015 52.7223 38.7015C52.8832 38.7015 53.1465 38.5698 53.3074 38.4088C53.4683 38.2478 53.6 37.9843 53.6 37.8233C53.6 37.6623 53.4683 37.3988 53.3074 37.2378C53.1465 37.0768 52.8832 36.9451 52.7223 36.9451C52.5614 36.9451 52.298 37.0768 52.1372 37.2378Z" fill="#F6B60D"/>
<path d="M2.13126 39.3164C1.75098 39.5214 1.41459 40.268 1.39996 40.9412C1.37071 41.6877 1.76561 42.3463 2.36527 42.6099C3.71085 43.1659 6.81154 42.4047 6.91394 41.4826C6.97241 40.9704 6.27039 40.18 5.31968 39.6678C4.41291 39.17 2.74554 38.9797 2.13126 39.3164Z" fill="#F6B60D"/>
<path d="M0.800415 48.4207C0.800415 48.8453 1.20994 49.0355 1.50246 48.7427C1.79497 48.4499 1.61946 48.0695 1.16606 48.0695C0.873543 48.0695 0.800415 48.1425 0.800415 48.4207Z" fill="#F6B60D"/>
<path d="M2.02894 56.1934C1.15139 56.7932 1.26839 58.301 2.21908 58.6963C3.082 59.0621 3.95954 58.6521 4.23744 57.7596C4.36909 57.2912 4.06194 56.4858 3.65242 56.208C3.21364 55.9152 2.42384 55.9006 2.02894 56.1934Z" fill="#F6B60D"/>
</g>
</g>
<defs>
<clipPath id="clip0_288_407">
<rect width="69" height="56" fill="white"/>
</clipPath>
<clipPath id="clip1_288_407">
<rect width="69" height="73" fill="white"/>
</clipPath>
</defs>
</svg>
