<svg width="231" height="278" viewBox="0 0 231 278" fill="none" xmlns="http://www.w3.org/2000/svg">
<path d="M148.729 0C146.035 6.53803 141.414 12.1377 135.457 16.0816C129.501 20.0255 122.481 22.1341 115.296 22.1372C108.112 22.1341 101.091 20.0255 95.1351 16.0816C89.1788 12.1377 84.5575 6.53803 81.8633 0L0 34.0573L23.0245 87.3415L48.3358 76.8147V185.457H183.156V77.2094L207.544 87.3647L230.569 34.0805L148.729 0Z" fill="#FAFAFA"/>
<path d="M10.4945 56.6458C9.66368 57.6233 10.2502 58.8451 11.472 58.8451C12.0096 58.8451 12.5961 58.503 12.7427 58.112C13.036 57.3789 12.2051 55.9127 11.472 55.9127C11.2765 55.9127 10.8366 56.2548 10.4945 56.6458Z" fill="#F6B60D"/>
<path d="M23.4459 58.6991C21.882 59.0901 19.8293 60.7518 19.0473 62.2668C17.3367 65.5414 18.6075 68.376 23.2016 71.7972C28.3822 75.5604 33.3184 76.4402 34.5402 73.7033C35.6154 71.3573 33.6605 64.906 30.6792 60.9473C29.0175 58.7968 26.4272 57.966 23.4459 58.6991Z" fill="#F6B60D"/>
<path d="M118.016 62.6575C114.986 63.5861 115.719 68.6201 118.896 68.6201C120.313 68.6201 121.926 66.9584 121.926 65.5411C121.926 63.7816 119.677 62.1199 118.016 62.6575Z" fill="#F6B60D"/>
<path d="M79.0148 64.5148C77.6464 65.4434 76.4734 67.6916 76.4734 69.3533C76.4734 71.3083 78.9171 73.5076 81.0186 73.5076C82.3382 73.5076 83.0224 73.1655 84.0488 71.9436C87.3722 67.9849 83.0713 61.6313 79.0148 64.5148Z" fill="#F6B60D"/>
<path d="M100.324 67.3494C96.5605 68.3757 92.6995 71.0149 89.0339 75.218C87.1279 77.3685 84.6842 79.7144 83.609 80.3986C80.3833 82.4513 80.2367 82.7934 80.6277 86.9477C81.1653 92.8125 79.2104 97.9442 75.1539 101.316C71.244 104.542 65.1348 104.689 59.7587 101.659C56.3375 99.7525 50.2772 93.8877 48.811 91.0042C47.4426 88.4139 44.3635 84.4551 42.7996 83.331C39.7694 81.1806 36.8859 82.5491 36.8859 86.1657C36.8859 89.0981 38.4987 90.9064 43.2394 93.3012C47.7847 95.5983 49.7396 97.4555 50.5705 100.437C51.157 102.392 50.5705 103.174 48.2734 103.614C47.0027 103.858 46.3185 104.396 45.341 105.959C44.6568 107.035 43.9725 108.061 43.8748 108.208C43.777 108.305 42.3597 108.354 40.7958 108.305C37.4235 108.11 36.2017 108.648 34.9309 110.798C33.2692 113.437 33.8557 117.054 36.055 118.471C36.6415 118.813 38.7919 119.204 40.7958 119.302C44.9989 119.497 46.4162 120.231 47.7847 123.016C48.6644 124.776 48.6644 124.874 47.7847 126.633C46.4651 129.223 44.2169 130.298 40.307 130.103C37.2769 129.908 36.9348 129.761 33.0737 126.877C30.8256 125.216 28.5774 123.847 28.0886 123.847C26.5736 123.847 24.6675 125.753 24.6675 127.317C24.6675 129.614 25.9871 130.494 30.5812 131.178C32.8294 131.52 35.664 132.107 36.837 132.498C41.1868 133.964 44.4613 137.092 43.0928 138.46C42.3597 139.193 37.7167 139.096 34.6866 138.314C31.5587 137.483 30.4346 137.972 30.6301 140.122L30.7767 141.686L35.2731 141.93C40.6491 142.224 42.1642 143.103 43.1417 146.378C43.6793 148.235 43.6304 148.822 42.9951 150.581C41.48 154.491 37.619 156.446 32.4873 155.908C30.9722 155.762 28.9684 155.322 27.942 154.882C19.8779 151.51 11.0318 159.525 10.9829 170.228C10.9829 174.138 12.6935 178.732 15.1372 181.225C17.7763 183.962 18.9493 184.45 22.8592 184.45C26.9157 184.402 30.1413 183.033 37.0325 178.39C43.6793 173.943 45.2921 173.307 46.7583 174.773C47.6381 175.653 47.7358 176.142 47.4426 179.025C46.5628 187.627 43.8259 192.563 37.4235 197.304C31.3632 201.752 28.5774 205.222 28.5774 208.203C28.5774 209.962 30.3368 212.944 31.9985 213.921C33.9046 215.094 36.9348 214.996 38.5476 213.726C40.307 212.357 41.1379 210.549 42.0176 206.443C43.0439 201.458 43.8259 199.943 46.8561 196.913C49.7396 193.981 52.0367 192.759 54.627 192.759C60.9317 192.759 61.958 197.109 56.4842 200.53C53.6006 202.24 52.8187 203.511 53.2096 205.661C53.8939 209.18 58.2925 211.331 61.8603 209.865C64.3528 208.789 64.9393 207.421 64.5483 203.169C64.3039 200.139 64.4017 199.112 65.1837 197.402C66.2589 194.909 67.7251 193.932 69.1424 194.714C71.2928 195.887 70.7064 201.361 67.3341 211.917C65.3303 218.32 65.0859 220.568 66.4055 222.034C68.4093 224.233 70.3642 223.012 71.635 218.76C72.1237 217 72.3681 216.756 73.2478 217C73.8343 217.147 74.3719 217.293 74.5185 217.293C76.8156 217.342 77.4509 215.925 77.4998 210.695C77.5487 204 78.6727 202.191 83.8045 200.823C87.3722 199.846 89.5227 199.943 92.0152 201.067C97.4891 203.56 99.5417 206.541 99.1508 211.429C98.9064 214.361 99.0041 214.703 100.91 218.173C101.985 220.177 103.549 223.207 104.331 224.869C105.358 227.019 106.237 228.143 107.313 228.73C109.023 229.61 110.001 229.365 113.177 227.166C114.155 226.53 116.159 225.749 117.674 225.504C121.828 224.869 125.885 221.888 127.791 218.124C128.67 216.463 129.501 212.553 129.892 208.007C130.137 205.417 130.381 205.173 133.118 204.635C137.028 203.902 138.641 199.552 136.686 195.056C135.562 192.563 134.046 191.39 130.919 190.56C128.231 189.875 128.133 189.24 130.576 188.702C132.922 188.214 136.295 188.996 140.742 191.048C144.945 192.954 147.487 195.105 148.66 197.744C151.152 203.413 159.656 201.263 159.656 194.909C159.656 194.03 159.51 193.052 159.314 192.759C158.679 191.684 154.964 190.315 152.716 190.315C146.46 190.266 139.618 187.383 134.731 182.642C132.336 180.345 132.14 179.954 132.287 178.243C132.385 176.777 132.727 176.24 133.802 175.751C134.975 175.164 135.415 175.213 137.712 176.289C139.08 176.924 142.257 179.025 144.652 180.98C147.927 183.571 149.833 184.744 152.179 185.428C158.19 187.334 163.468 186.308 167.28 182.593C170.653 179.27 171.532 177.217 171.532 172.476C171.532 169.153 171.288 168.175 170.115 165.878C168.258 162.262 165.032 159.329 161.611 158.059C158.972 157.081 158.581 157.032 154.329 157.619C150.321 158.156 149.637 158.156 147.633 157.374C144.017 155.957 142.306 154.54 140.302 151.07C136.881 145.107 137.468 140.269 142.111 135.479C144.945 132.596 147.291 131.325 152.716 129.712C157.261 128.344 160.34 126.828 162.393 124.922C164.544 122.919 164.592 120.231 162.54 118.031C159.852 115.197 156.382 116.174 147.633 122.283C144.701 124.336 141.964 125.02 141.964 123.652C141.964 123.31 142.502 122.039 143.137 120.866C143.772 119.693 144.359 118.276 144.408 117.738C144.799 113.828 143.772 112.46 139.765 111.629C136.979 111.042 136.979 111.042 137.272 109.527C137.468 108.648 137.712 106.644 137.859 105.031C138.152 101.659 137.272 99.4104 135.024 97.7487C133.264 96.478 129.648 96.4291 127.155 97.651C124.516 98.9706 123.343 100.828 122.854 104.787C122.317 109.039 120.997 111.727 118.651 113.339C116.501 114.757 113.422 114.952 111.711 113.779C110.294 112.753 108.779 109.478 108.73 107.377C108.73 105.862 109.952 100.437 112.395 91.3463C113.911 85.5792 114.546 77.1241 113.666 74.3872C112.786 71.6991 109.072 68.278 106.14 67.3983C103.256 66.5674 103.305 66.5674 100.324 67.3494ZM90.9889 89.7335C92.4062 91.3463 93.4814 94.4742 94.2634 99.3127C94.6544 101.659 95.0943 104.151 95.2897 104.884C95.583 106.008 95.4852 106.253 94.7033 106.253C93.4814 106.253 89.8159 103.858 87.861 101.805C86.1504 99.948 83.8045 94.7674 83.8045 92.8125C83.8045 91.444 84.5864 89.5868 85.4662 89.0492C85.7594 88.8537 86.8835 88.6582 88.0076 88.6582C89.4249 88.6582 90.2558 88.9515 90.9889 89.7335Z" fill="#F6B60D"/>
<path d="M41.3822 73.1166C40.5514 73.9474 40.6491 75.4625 41.5288 75.7557C42.4086 76.0978 43.7281 75.1692 43.7281 74.1918C43.7281 73.2143 42.0664 72.4323 41.3822 73.1166Z" fill="#F6B60D"/>
<path d="M71.5865 86.9475C70.8045 88.3649 71.391 89.3423 72.8572 89.0491C73.5415 88.9513 73.7858 88.4626 73.7858 87.4363C73.7858 85.5791 72.4662 85.2858 71.5865 86.9475Z" fill="#F6B60D"/>
<path d="M187.27 90.9554C186.684 91.493 186.879 92.9103 187.612 93.4968C188.394 94.1811 189.665 93.7412 190.056 92.7149C190.593 91.2975 188.345 89.8802 187.27 90.9554Z" fill="#F6B60D"/>
<path d="M179.108 101.707C174.465 104.151 171.044 109.674 171.973 113.242C172.51 115.49 174.367 116.272 179.108 116.272C183.36 116.223 185.462 115.539 188.199 113.242C191.766 110.26 190.984 103.32 186.879 101.268C184.435 100.046 182.04 100.192 179.108 101.707Z" fill="#F6B60D"/>
<path d="M23.7386 102.147C22.3213 103.955 22.4679 105.128 24.374 107.034C25.6936 108.354 26.4267 108.696 27.9417 108.696C30.2877 108.696 31.0208 108.012 31.0208 105.862C31.0208 104.64 30.5809 103.76 29.3591 102.538C27.2575 100.437 25.2048 100.29 23.7386 102.147Z" fill="#F6B60D"/>
<path d="M150.322 112.313C149.54 113.29 150.175 114.561 151.495 114.561C152.13 114.561 152.765 114.219 152.912 113.779C153.254 112.85 152.423 111.629 151.495 111.629C151.152 111.629 150.615 111.922 150.322 112.313Z" fill="#F6B60D"/>
<path d="M174.221 124.336C173.683 124.873 173.243 125.753 173.243 126.29C173.243 126.828 173.683 127.708 174.221 128.245C174.758 128.783 175.638 129.223 176.176 129.223C176.713 129.223 177.593 128.783 178.131 128.245C178.668 127.708 179.108 126.828 179.108 126.29C179.108 125.753 178.668 124.873 178.131 124.336C177.593 123.798 176.713 123.358 176.176 123.358C175.638 123.358 174.758 123.798 174.221 124.336Z" fill="#F6B60D"/>
<path d="M7.12186 131.276C5.85115 131.96 4.72706 134.453 4.67818 136.701C4.58043 139.193 5.90002 141.393 7.90384 142.272C12.4002 144.13 22.7614 141.588 23.1035 138.509C23.299 136.799 20.9531 134.159 17.7763 132.449C14.7461 130.787 9.17455 130.152 7.12186 131.276Z" fill="#F6B60D"/>
<path d="M2.67456 161.675C2.67456 163.092 4.04302 163.728 5.02049 162.75C5.99796 161.773 5.41148 160.502 3.8964 160.502C2.91893 160.502 2.67456 160.746 2.67456 161.675Z" fill="#F6B60D"/>
<path d="M6.77968 187.627C3.84727 189.631 4.23825 194.665 7.41503 195.984C10.2986 197.206 13.231 195.838 14.1596 192.856C14.5994 191.293 13.5731 188.604 12.2046 187.676C10.7384 186.698 8.09926 186.65 6.77968 187.627Z" fill="#F6B60D"/>
<path d="M143.968 205.368C142.404 207.616 142.209 209.131 143.43 210.353C145.336 212.259 148.807 210.402 148.807 207.47C148.807 204.195 145.776 202.876 143.968 205.368Z" fill="#F6B60D"/>
<path d="M158.337 206.639C157.457 208.007 157.848 209.376 159.119 209.376C160.389 209.376 161.22 207.714 160.536 206.443C159.852 205.173 159.265 205.222 158.337 206.639Z" fill="#F6B60D"/>
<path d="M83.4138 209.962C82.6807 210.695 82.6318 212.113 83.3161 212.553C83.6093 212.699 84.2447 212.699 84.8312 212.553C85.5643 212.308 85.7598 211.868 85.662 210.94C85.5154 209.522 84.3913 208.985 83.4138 209.962Z" fill="#F6B60D"/>
<path d="M20.0248 217.391C12.7915 219.688 8.53955 225.211 8.53955 232.249C8.53955 237.283 11.7652 242.17 15.5773 242.903C17.3368 243.196 20.6113 241.974 22.4685 240.313C26.2318 236.892 30.0439 228.681 30.0439 223.989C30.0439 221.252 28.7243 218.271 27.0626 217.44C25.4009 216.56 22.664 216.56 20.0248 217.391Z" fill="#F6B60D"/>
<path d="M35.7619 219.541C34.6867 220.763 34.7355 222.23 35.8596 223.256C37.1792 224.478 39.3785 224.087 40.2583 222.523C40.8936 221.35 40.8936 221.105 40.1605 219.932C39.1342 218.417 36.9349 218.222 35.7619 219.541Z" fill="#F6B60D"/>
<path d="M140.84 221.643C139.96 222.865 140.253 224.038 141.475 224.038C142.746 224.038 143.723 222.669 143.137 221.692C142.355 220.47 141.622 220.47 140.84 221.643Z" fill="#F6B60D"/>
<path d="M62.8867 230.196C62.0558 231.173 61.2738 232.688 61.1272 233.568C60.2964 238.016 64.1574 239.873 67.4808 236.549C69.338 234.692 69.6312 232.786 68.4094 230.44C67.0898 227.85 64.8905 227.752 62.8867 230.196Z" fill="#F6B60D"/>
<path d="M159.168 236.354C158.386 237.136 158.435 239.042 159.266 239.335C160.39 239.775 161.611 238.553 161.416 237.234C161.269 235.865 160.096 235.425 159.168 236.354Z" fill="#F6B60D"/>
<path d="M0.0353431 239.922C-0.209025 240.606 0.866193 242.121 1.64817 242.121C2.38127 242.121 3.261 240.655 2.96776 239.922C2.62564 238.993 0.426331 238.945 0.0353431 239.922Z" fill="#F6B60D"/>
<path d="M28.8029 248.853H22.7229V220.133H28.8029V232.773L39.2429 220.133H46.2029L34.8029 233.893L46.5229 248.853H39.0429L28.8029 235.733V248.853ZM68.4704 248.853H49.9104V220.133H55.9904V243.373H68.4704V248.853ZM84.8848 248.853V246.213C83.4848 248.213 81.3648 249.253 78.4448 249.253C74.0048 249.253 71.0448 246.653 71.0448 242.653C71.0448 238.493 74.4048 236.253 80.6448 236.253C81.8448 236.253 82.8848 236.333 84.2048 236.493V235.213C84.2048 232.813 82.8448 231.413 80.5248 231.413C78.1248 231.413 76.6848 232.813 76.4848 235.213H71.4848C71.8048 230.293 75.3648 227.093 80.5248 227.093C86.1248 227.093 89.4048 230.173 89.4048 235.413V248.853H84.8848ZM76.2848 242.493C76.2848 244.293 77.5648 245.413 79.6448 245.413C82.4848 245.413 84.2048 243.853 84.2048 241.373V239.853C82.8848 239.653 81.9648 239.573 81.0048 239.573C77.8448 239.573 76.2848 240.573 76.2848 242.493ZM99.7561 248.853H94.1961V227.493H99.3161V230.533C100.876 228.373 102.876 227.093 105.716 227.093C108.636 227.093 110.876 228.453 111.956 230.893C113.636 228.533 115.796 227.093 118.996 227.093C123.316 227.093 126.236 229.933 126.236 235.053V248.853H120.716V236.813C120.716 233.813 119.436 232.013 116.996 232.013C114.796 232.013 112.996 233.733 112.996 236.933V248.853H107.476V236.813C107.476 233.813 106.196 232.013 103.756 232.013C101.516 232.013 99.7561 233.733 99.7561 236.933V248.853ZM152.313 238.173C152.313 244.413 148.593 249.253 142.833 249.253C140.073 249.253 137.753 248.013 136.113 245.773V248.853H130.993V220.133H136.553V230.253C138.113 228.173 140.273 227.093 142.833 227.093C148.593 227.093 152.313 231.853 152.313 238.173ZM146.593 238.173C146.593 234.093 144.313 232.013 141.593 232.013C138.913 232.013 136.593 234.053 136.593 238.093C136.593 242.133 138.833 244.293 141.593 244.293C144.313 244.293 146.593 242.173 146.593 238.173ZM162.316 222.533C162.316 224.413 160.796 225.813 158.596 225.813C156.436 225.813 154.916 224.413 154.916 222.533C154.916 220.573 156.436 219.173 158.596 219.173C160.796 219.173 162.316 220.573 162.316 222.533ZM161.436 248.853H155.876V227.493H161.436V248.853Z" fill="#FAFAFA"/>
</svg>
