<svg width="335" height="403" viewBox="0 0 335 403" fill="none" xmlns="http://www.w3.org/2000/svg">
<path d="M215.604 0C211.698 9.4778 204.999 17.5952 196.364 23.3125C187.73 29.0297 177.553 32.0864 167.138 32.091C156.723 32.0864 146.546 29.0297 137.912 23.3125C129.277 17.5952 122.578 9.4778 118.672 0L0 49.3708L33.3773 126.614L70.0695 111.354V268.847H265.51V111.926L300.864 126.647L334.242 49.4045L215.604 0Z" fill="#FAFAFA"/>
<path d="M15.2134 82.116C14.0089 83.533 14.8591 85.3042 16.6303 85.3042C17.4097 85.3042 18.2599 84.8083 18.4724 84.2415C18.8975 83.1787 17.6931 81.0533 16.6303 81.0533C16.3469 81.0533 15.7093 81.5492 15.2134 82.116Z" fill="#F6B60D"/>
<path d="M33.9882 85.0926C31.7211 85.6594 28.7454 88.0682 27.6118 90.2646C25.1321 95.0114 26.9742 99.1207 33.634 104.08C41.144 109.536 48.2997 110.811 50.071 106.843C51.6296 103.442 48.7957 94.0904 44.4739 88.3516C42.065 85.2343 38.31 84.0298 33.9882 85.0926Z" fill="#F6B60D"/>
<path d="M171.08 90.8309C166.688 92.177 167.75 99.4745 172.356 99.4745C174.41 99.4745 176.748 97.0656 176.748 95.011C176.748 92.4604 173.489 90.0516 171.08 90.8309Z" fill="#F6B60D"/>
<path d="M114.543 93.5233C112.559 94.8695 110.859 98.1285 110.859 100.537C110.859 103.371 114.401 106.56 117.448 106.56C119.361 106.56 120.353 106.064 121.84 104.292C126.658 98.5536 120.424 89.3433 114.543 93.5233Z" fill="#F6B60D"/>
<path d="M145.433 97.6323C139.978 99.1202 134.381 102.946 129.067 109.039C126.304 112.156 122.762 115.557 121.203 116.549C116.527 119.525 116.314 120.021 116.881 126.043C117.661 134.545 114.827 141.984 108.946 146.872C103.278 151.548 94.4221 151.761 86.6287 147.368C81.6693 144.605 72.884 136.103 70.7585 131.923C68.7748 128.168 64.3113 122.43 62.0441 120.8C57.6515 117.683 53.4714 119.666 53.4714 124.909C53.4714 129.16 55.8094 131.782 62.6818 135.253C69.2707 138.583 72.1047 141.275 73.3091 145.597C74.1593 148.431 73.3091 149.565 69.9792 150.202C68.1371 150.557 67.1452 151.336 65.7283 153.603C64.7364 155.162 63.7445 156.65 63.6028 156.862C63.4611 157.004 61.4065 157.075 59.1393 157.004C54.2507 156.72 52.4795 157.5 50.6374 160.617C48.2285 164.443 49.0787 169.686 52.2669 171.74C53.1171 172.236 56.2345 172.803 59.1393 172.945C65.2323 173.228 67.2869 174.291 69.2707 178.329C70.546 180.88 70.546 181.022 69.2707 183.572C67.3578 187.327 64.0987 188.886 58.4308 188.603C54.0382 188.319 53.5422 188.107 47.9452 183.926C44.6861 181.518 41.427 179.534 40.7186 179.534C38.5222 179.534 35.7591 182.297 35.7591 184.564C35.7591 187.894 37.672 189.169 44.3319 190.161C47.5909 190.657 51.7002 191.507 53.4005 192.074C59.7061 194.2 64.453 198.734 62.4692 200.718C61.4065 201.78 54.6758 201.639 50.2832 200.505C45.7488 199.301 44.1193 200.009 44.4027 203.127L44.6152 205.394L51.1334 205.748C58.9268 206.173 61.1231 207.448 62.5401 212.195C63.3194 214.888 63.2485 215.738 62.3275 218.288C60.1312 223.956 54.5341 226.79 47.095 226.011C44.8986 225.798 41.9938 225.161 40.506 224.523C28.8159 219.634 15.9922 231.254 15.9214 246.77C15.9214 252.438 18.4011 259.097 21.9436 262.711C25.7694 266.678 27.4698 267.387 33.1377 267.387C39.0182 267.316 43.6942 265.332 53.6839 258.601C63.3194 252.154 65.6574 251.233 67.7829 253.359C69.0582 254.634 69.1999 255.342 68.7748 259.522C67.4995 271.992 63.5319 279.148 54.2507 286.02C45.4654 292.467 41.427 297.498 41.427 301.819C41.427 304.37 43.9776 308.692 46.3865 310.109C49.1496 311.809 53.5422 311.667 55.8802 309.825C58.4308 307.841 59.6352 305.22 60.9105 299.269C62.3984 292.042 63.5319 289.846 67.9246 285.453C72.1047 281.202 75.4346 279.431 79.1896 279.431C88.3291 279.431 89.8169 285.737 81.8818 290.696C77.7017 293.176 76.5682 295.018 77.135 298.135C78.1268 303.236 84.5033 306.354 89.6752 304.228C93.2885 302.669 94.1387 300.686 93.5719 294.522C93.2177 290.129 93.3594 288.641 94.493 286.162C96.0516 282.548 98.1771 281.131 100.232 282.265C103.349 283.965 102.499 291.9 97.6103 307.204C94.7055 316.485 94.3513 319.744 96.2642 321.87C99.169 325.058 102.003 323.287 103.845 317.123C104.554 314.572 104.908 314.218 106.183 314.572C107.033 314.785 107.813 314.997 108.025 314.997C111.355 315.068 112.276 313.013 112.347 305.433C112.418 295.726 114.047 293.105 121.486 291.121C126.658 289.704 129.776 289.846 133.389 291.475C141.324 295.089 144.3 299.41 143.733 306.495C143.379 310.746 143.521 311.242 146.284 316.273C147.842 319.177 150.109 323.57 151.243 325.979C152.731 329.096 154.006 330.726 155.565 331.576C158.045 332.851 159.462 332.497 164.067 329.309C165.484 328.388 168.389 327.254 170.585 326.9C176.607 325.979 182.487 321.657 185.251 316.202C186.526 313.793 187.73 308.125 188.297 301.536C188.651 297.781 189.006 297.427 192.973 296.647C198.641 295.585 200.979 289.279 198.145 282.761C196.516 279.148 194.319 277.447 189.785 276.243C185.888 275.251 185.747 274.33 189.289 273.551C192.69 272.842 197.578 273.976 204.026 276.951C210.119 279.714 213.803 282.832 215.503 286.658C219.116 294.876 231.444 291.759 231.444 282.548C231.444 281.273 231.232 279.856 230.948 279.431C230.027 277.872 224.643 275.889 221.384 275.889C212.315 275.818 202.396 271.638 195.311 264.765C191.84 261.435 191.556 260.869 191.769 258.389C191.91 256.263 192.406 255.484 193.965 254.776C195.665 253.925 196.303 253.996 199.633 255.555C201.617 256.476 206.222 259.522 209.694 262.356C214.44 266.111 217.204 267.812 220.604 268.804C229.319 271.567 236.97 270.079 242.497 264.694C247.385 259.877 248.66 256.901 248.66 250.029C248.66 245.211 248.306 243.794 246.606 240.464C243.914 235.221 239.238 230.97 234.278 229.128C230.452 227.711 229.885 227.64 223.722 228.491C217.912 229.27 216.92 229.27 214.015 228.136C208.772 226.082 206.293 224.027 203.388 218.997C198.429 210.353 199.279 203.339 206.009 196.396C210.119 192.216 213.519 190.374 221.384 188.036C227.973 186.052 232.436 183.856 235.412 181.093C238.529 178.188 238.6 174.291 235.624 171.103C231.728 166.994 226.697 168.411 214.015 177.267C209.764 180.242 205.797 181.234 205.797 179.25C205.797 178.755 206.576 176.912 207.497 175.212C208.418 173.512 209.268 171.457 209.339 170.678C209.906 165.01 208.418 163.026 202.609 161.822C198.57 160.971 198.57 160.971 198.995 158.775C199.279 157.5 199.633 154.595 199.845 152.257C200.271 147.368 198.995 144.109 195.736 141.7C193.186 139.858 187.943 139.788 184.33 141.559C180.504 143.472 178.803 146.164 178.095 151.903C177.315 158.067 175.403 161.963 172.002 164.301C168.884 166.356 164.421 166.639 161.941 164.939C159.887 163.451 157.69 158.704 157.619 155.658C157.619 153.461 159.391 145.597 162.933 132.419C165.129 124.059 166.05 111.802 164.775 107.835C163.5 103.938 158.115 98.9785 153.864 97.7032C149.684 96.4988 149.755 96.4988 145.433 97.6323ZM131.901 130.081C133.956 132.419 135.515 136.954 136.648 143.968C137.215 147.368 137.853 150.982 138.136 152.044C138.561 153.674 138.419 154.028 137.286 154.028C135.515 154.028 130.201 150.557 127.367 147.581C124.887 144.889 121.486 137.379 121.486 134.545C121.486 132.561 122.62 129.869 123.895 129.089C124.32 128.806 125.95 128.523 127.579 128.523C129.634 128.523 130.839 128.948 131.901 130.081Z" fill="#F6B60D"/>
<path d="M59.9892 105.993C58.7848 107.197 58.9265 109.393 60.2018 109.819C61.4771 110.314 63.39 108.968 63.39 107.551C63.39 106.134 60.9811 105.001 59.9892 105.993Z" fill="#F6B60D"/>
<path d="M103.775 126.043C102.641 128.097 103.491 129.514 105.617 129.089C106.609 128.947 106.963 128.239 106.963 126.751C106.963 124.059 105.05 123.634 103.775 126.043Z" fill="#F6B60D"/>
<path d="M271.474 131.853C270.624 132.632 270.908 134.687 271.97 135.537C273.104 136.529 274.946 135.891 275.513 134.403C276.292 132.349 273.033 130.294 271.474 131.853Z" fill="#F6B60D"/>
<path d="M259.642 147.439C252.912 150.982 247.952 158.988 249.298 164.16C250.078 167.419 252.77 168.552 259.642 168.552C265.806 168.481 268.853 167.49 272.82 164.16C277.992 159.838 276.859 149.777 270.907 146.802C267.365 145.03 263.893 145.243 259.642 147.439Z" fill="#F6B60D"/>
<path d="M34.4125 148.077C32.3578 150.698 32.5704 152.398 35.3335 155.161C37.2464 157.074 38.3092 157.57 40.5055 157.57C43.9062 157.57 44.969 156.578 44.969 153.461C44.969 151.69 44.3313 150.415 42.5601 148.643C39.5136 145.597 36.5379 145.384 34.4125 148.077Z" fill="#F6B60D"/>
<path d="M217.912 162.813C216.779 164.23 217.7 166.072 219.613 166.072C220.534 166.072 221.455 165.576 221.667 164.939C222.163 163.593 220.959 161.821 219.613 161.821C219.117 161.821 218.337 162.246 217.912 162.813Z" fill="#F6B60D"/>
<path d="M252.558 180.242C251.778 181.021 251.141 182.296 251.141 183.076C251.141 183.855 251.778 185.13 252.558 185.91C253.337 186.689 254.612 187.327 255.392 187.327C256.171 187.327 257.446 186.689 258.226 185.91C259.005 185.13 259.643 183.855 259.643 183.076C259.643 182.296 259.005 181.021 258.226 180.242C257.446 179.462 256.171 178.825 255.392 178.825C254.612 178.825 253.337 179.462 252.558 180.242Z" fill="#F6B60D"/>
<path d="M10.3242 190.303C8.48216 191.295 6.85264 194.908 6.78179 198.167C6.64009 201.78 8.55301 204.969 11.4578 206.244C17.9759 208.936 32.9959 205.252 33.4919 200.788C33.7753 198.309 30.3745 194.483 25.7693 192.003C21.3767 189.594 13.2999 188.673 10.3242 190.303Z" fill="#F6B60D"/>
<path d="M3.8772 234.371C3.8772 236.425 5.86097 237.346 7.27795 235.929C8.69493 234.512 7.84474 232.67 5.64842 232.67C4.23144 232.67 3.8772 233.025 3.8772 234.371Z" fill="#F6B60D"/>
<path d="M9.828 271.992C5.57706 274.896 6.14385 282.194 10.749 284.107C14.9291 285.878 19.1801 283.894 20.5262 279.573C21.1638 277.305 19.676 273.409 17.6922 272.063C15.5668 270.646 11.7409 270.575 9.828 271.992Z" fill="#F6B60D"/>
<path d="M208.702 297.71C206.435 300.969 206.151 303.165 207.922 304.936C210.686 307.7 215.716 305.007 215.716 300.756C215.716 296.009 211.323 294.097 208.702 297.71Z" fill="#F6B60D"/>
<path d="M229.531 299.552C228.256 301.536 228.823 303.52 230.665 303.52C232.507 303.52 233.711 301.111 232.719 299.269C231.728 297.427 230.877 297.497 229.531 299.552Z" fill="#F6B60D"/>
<path d="M120.92 304.37C119.857 305.433 119.786 307.487 120.778 308.125C121.203 308.337 122.124 308.337 122.975 308.125C124.037 307.771 124.321 307.133 124.179 305.787C123.967 303.732 122.337 302.953 120.92 304.37Z" fill="#F6B60D"/>
<path d="M29.0289 315.139C18.5433 318.469 12.3794 326.475 12.3794 336.677C12.3794 343.974 17.0554 351.059 22.5817 352.122C25.1322 352.547 29.8791 350.776 32.5714 348.367C38.0267 343.408 43.553 331.505 43.553 324.704C43.553 320.736 41.64 316.414 39.2312 315.21C36.8223 313.934 32.8548 313.934 29.0289 315.139Z" fill="#F6B60D"/>
<path d="M51.8419 318.256C50.2832 320.027 50.354 322.153 51.9836 323.641C53.8965 325.412 57.0847 324.845 58.36 322.578C59.281 320.878 59.281 320.523 58.2183 318.823C56.7305 316.627 53.5423 316.343 51.8419 318.256Z" fill="#F6B60D"/>
<path d="M204.167 321.302C202.891 323.074 203.316 324.774 205.088 324.774C206.93 324.774 208.347 322.79 207.497 321.373C206.363 319.602 205.3 319.602 204.167 321.302Z" fill="#F6B60D"/>
<path d="M91.163 333.701C89.9586 335.118 88.825 337.315 88.6124 338.59C87.408 345.037 93.0051 347.729 97.8228 342.912C100.515 340.219 100.94 337.456 99.1689 334.055C97.256 330.3 94.0678 330.159 91.163 333.701Z" fill="#F6B60D"/>
<path d="M230.736 342.628C229.602 343.762 229.673 346.525 230.878 346.95C232.507 347.588 234.278 345.816 233.995 343.903C233.782 341.92 232.082 341.282 230.736 342.628Z" fill="#F6B60D"/>
<path d="M0.0512348 347.801C-0.30301 348.793 1.25567 350.989 2.38925 350.989C3.45199 350.989 4.72727 348.863 4.30218 347.801C3.80623 346.455 0.618027 346.384 0.0512348 347.801Z" fill="#F6B60D"/>
<path d="M37.6892 341.863H31.6092V313.143H37.6892V325.783L48.1292 313.143H55.0892L43.6892 326.903L55.4092 341.863H47.9292L37.6892 328.743V341.863ZM77.3567 341.863H58.7967V313.143H64.8767V336.383H77.3567V341.863ZM93.771 341.863V339.223C92.371 341.223 90.251 342.263 87.331 342.263C82.891 342.263 79.931 339.663 79.931 335.663C79.931 331.503 83.291 329.263 89.531 329.263C90.731 329.263 91.771 329.343 93.091 329.503V328.223C93.091 325.823 91.731 324.423 89.411 324.423C87.011 324.423 85.571 325.823 85.371 328.223H80.371C80.691 323.303 84.251 320.103 89.411 320.103C95.011 320.103 98.291 323.183 98.291 328.423V341.863H93.771ZM85.171 335.503C85.171 337.303 86.451 338.423 88.531 338.423C91.371 338.423 93.091 336.863 93.091 334.383V332.863C91.771 332.663 90.851 332.583 89.891 332.583C86.731 332.583 85.171 333.583 85.171 335.503ZM108.642 341.863H103.082V320.503H108.202V323.543C109.762 321.383 111.762 320.103 114.602 320.103C117.522 320.103 119.762 321.463 120.842 323.903C122.522 321.543 124.682 320.103 127.882 320.103C132.202 320.103 135.122 322.943 135.122 328.063V341.863H129.602V329.823C129.602 326.823 128.322 325.023 125.882 325.023C123.682 325.023 121.882 326.743 121.882 329.943V341.863H116.362V329.823C116.362 326.823 115.082 325.023 112.642 325.023C110.402 325.023 108.642 326.743 108.642 329.943V341.863ZM161.199 331.183C161.199 337.423 157.479 342.263 151.719 342.263C148.959 342.263 146.639 341.023 144.999 338.783V341.863H139.879V313.143H145.439V323.263C146.999 321.183 149.159 320.103 151.719 320.103C157.479 320.103 161.199 324.863 161.199 331.183ZM155.479 331.183C155.479 327.103 153.199 325.023 150.479 325.023C147.799 325.023 145.479 327.063 145.479 331.103C145.479 335.143 147.719 337.303 150.479 337.303C153.199 337.303 155.479 335.183 155.479 331.183ZM171.202 315.543C171.202 317.423 169.682 318.823 167.482 318.823C165.322 318.823 163.802 317.423 163.802 315.543C163.802 313.583 165.322 312.183 167.482 312.183C169.682 312.183 171.202 313.583 171.202 315.543ZM170.322 341.863H164.762V320.503H170.322V341.863Z" fill="#FAFAFA"/>
</svg>
