<svg width="25" height="23" viewBox="0 0 25 23" fill="none" xmlns="http://www.w3.org/2000/svg">
<path fill-rule="evenodd" clip-rule="evenodd" d="M14.0348 0.517361C13.596 0.18205 13.0559 0 12.4999 0C11.9439 0 11.4038 0.18205 10.9649 0.517361L0.48512 8.52232C-0.454861 9.24301 0.0626284 10.7225 1.25385 10.7225H2.50008V20.5445C2.50008 21.1957 2.76347 21.8203 3.2323 22.2808C3.70113 22.7413 4.337 23 5.00003 23H11.2499V14.4057C11.2499 14.0801 11.3816 13.7678 11.616 13.5376C11.8504 13.3073 12.1684 13.178 12.4999 13.178C12.8314 13.178 13.1493 13.3073 13.3837 13.5376C13.6182 13.7678 13.7499 14.0801 13.7499 14.4057V23H19.9997C20.6628 23 21.2986 22.7413 21.7675 22.2808C22.2363 21.8203 22.4997 21.1957 22.4997 20.5445V10.7225H23.7459C24.9359 10.7225 25.4559 9.24301 24.5146 8.52355L14.0348 0.517361Z" fill="#E7E7E7"/>
</svg>
