<svg width="20" height="23" viewBox="0 0 20 23" fill="none" xmlns="http://www.w3.org/2000/svg">
<path fill-rule="evenodd" clip-rule="evenodd" d="M4.71667 0H15.2833C16.5711 0 17.2144 1.19952e-07 17.7344 0.187446C18.2247 0.367288 18.6684 0.661712 19.0308 1.04784C19.3933 1.43396 19.6649 1.90139 19.8244 2.4138C20 2.96809 20 3.65347 20 5.02539V21.1296C20 22.1163 18.9056 22.6407 18.2133 21.9852C18.0191 21.7995 17.7644 21.6964 17.5 21.6964C17.2356 21.6964 16.9809 21.7995 16.7867 21.9852L16.25 22.4935C15.9098 22.8191 15.4634 23 15 23C14.5366 23 14.0902 22.8191 13.75 22.4935C13.4098 22.1679 12.9634 21.987 12.5 21.987C12.0366 21.987 11.5902 22.1679 11.25 22.4935C10.9098 22.8191 10.4634 23 10 23C9.53659 23 9.09023 22.8191 8.75 22.4935C8.40977 22.1679 7.96341 21.987 7.5 21.987C7.03659 21.987 6.59023 22.1679 6.25 22.4935C5.90977 22.8191 5.46341 23 5 23C4.53659 23 4.09023 22.8191 3.75 22.4935L3.21333 21.9852C3.01913 21.7995 2.76442 21.6964 2.5 21.6964C2.23558 21.6964 1.98087 21.7995 1.78667 21.9852C1.09444 22.6407 0 22.1163 0 21.1296V5.02539C0 3.65347 -1.65568e-08 2.96694 0.175556 2.41495C0.508889 1.36502 1.28111 0.541638 2.26556 0.187446C2.78556 1.19952e-07 3.42889 0 4.71667 0ZM13.4 7.47484C13.473 7.39027 13.5291 7.29165 13.5652 7.18463C13.6014 7.0776 13.6168 6.96425 13.6106 6.85106C13.6044 6.73787 13.5767 6.62705 13.5292 6.52492C13.4816 6.4228 13.415 6.33137 13.3333 6.25586C13.2516 6.18036 13.1563 6.12224 13.0529 6.08485C12.9495 6.04745 12.84 6.0315 12.7306 6.03791C12.6213 6.04431 12.5142 6.07295 12.4155 6.12219C12.3168 6.17142 12.2285 6.24029 12.1556 6.32486L8.81 10.2049L7.84333 9.0848C7.6956 8.91584 7.48926 8.81426 7.26939 8.80224C7.04952 8.79023 6.83399 8.86876 6.66989 9.02068C6.50578 9.1726 6.40643 9.38556 6.39355 9.61305C6.38066 9.84053 6.45528 10.064 6.60111 10.2348L8.18778 12.0747C8.26595 12.1654 8.36174 12.2379 8.46887 12.2875C8.576 12.3372 8.69206 12.3629 8.80945 12.3629C8.92683 12.3629 9.04289 12.3372 9.15002 12.2875C9.25715 12.2379 9.35294 12.1654 9.43111 12.0747L13.4 7.47484ZM5 14.6622C4.77899 14.6622 4.56702 14.753 4.41074 14.9148C4.25446 15.0765 4.16667 15.2959 4.16667 15.5247C4.16667 15.7534 4.25446 15.9728 4.41074 16.1345C4.56702 16.2963 4.77899 16.3871 5 16.3871H15C15.221 16.3871 15.433 16.2963 15.5893 16.1345C15.7455 15.9728 15.8333 15.7534 15.8333 15.5247C15.8333 15.2959 15.7455 15.0765 15.5893 14.9148C15.433 14.753 15.221 14.6622 15 14.6622H5Z" fill="#E7E7E7"/>
</svg>
